<svg xmlns="http://www.w3.org/2000/svg" width="933.333" height="933.333" preserveAspectRatio="xMidYMid meet" version="1.0" viewBox="0 0 700 700"><metadata>Created by potrace 1.14, written by Peter Selinger 2001-2017</metadata><g fill="#000" stroke="none"><path d="M3289 5836 c-5 -4 -175 -19 -204 -18 -201 7 -401 1 -485 -13 -14 -2 -45 -7 -70 -11 -25 -3 -83 -14 -130 -24 -891 -191 -1594 -891 -1789 -1780 -29 -134 -35 -171 -48 -305 -9 -90 -9 -307 0 -412 15 -174 91 -509 142 -618 7 -16 23 -55 35 -85 23 -59 113 -239 140 -280 9 -14 38 -59 65 -100 27 -41 58 -87 70 -101 11 -14 31 -40 45 -59 56 -75 209 -235 301 -315 162 -141 409 -297 599 -377 208 -88 395 -141 610 -172 139 -21 399 -27 540 -12 103 10 657 11 750 0 200 -22 499 -5 715 40 96 20 335 93 349 107 6 5 16 9 22 9 7 0 42 14 77 30 36 17 68 30 70 30 25 0 349 200 422 261 303 252 479 461 640 764 95 179 199 471 221 620 3 17 9 50 14 75 35 164 43 526 15 692 -2 13 -11 66 -20 119 -9 52 -23 120 -31 150 -9 29 -19 70 -24 90 -11 42 -55 169 -75 214 -57 132 -76 171 -119 250 -250 456 -650 821 -1122 1025 -94 40 -307 114 -356 124 -13 2 -57 11 -98 19 -41 9 -91 18 -110 21 -19 3 -45 8 -56 10 -78 15 -252 20 -529 13 -33 -1 -82 2 -110 6 -48 8 -459 19 -466 13z" transform="translate(0.000000,700.000000) scale(0.100000,-0.100000)"/></g></svg>