<svg width="54" height="44" viewBox="0 0 54 44" fill="none" xmlns="http://www.w3.org/2000/svg">
<path d="M39.9474 21.9737C39.9474 12.5994 32.348 5 22.9737 5C13.5994 5 6 12.5994 6 21.9737C6 31.348 13.5994 38.9474 22.9737 38.9474C32.348 38.9474 39.9474 31.348 39.9474 21.9737Z" fill="#252525"/>
<path d="M27.5001 38.9474C36.8744 38.9474 44.4737 31.348 44.4737 21.9737C44.4737 12.5994 36.8744 5 27.5001 5C18.1257 5 10.5264 12.5994 10.5264 21.9737C10.5264 31.348 18.1257 38.9474 27.5001 38.9474Z" fill="url(#paint0_linear_529_112)"/>
<path d="M49 21.9737C49 12.5994 41.4006 5 32.0263 5C22.652 5 15.0526 12.5994 15.0526 21.9737C15.0526 31.348 22.652 38.9474 32.0263 38.9474C41.4006 38.9474 49 31.348 49 21.9737Z" fill="#E5E5E5"/>
<defs>
<linearGradient id="paint0_linear_529_112" x1="27.5001" y1="4.99998" x2="27.5001" y2="38.9475" gradientUnits="userSpaceOnUse">
<stop stop-color="#E5E5E5"/>
<stop offset="0.997041" stop-color="#252525"/>
</linearGradient>
</defs>
</svg>
